<svg width="101" height="73" viewBox="0 0 101 73" fill="none" xmlns="http://www.w3.org/2000/svg">
<path d="M51.079 49H45.384V13.6575C45.384 12.7418 45.4398 11.7033 45.5515 10.542L29.0695 40.5915C28.5558 41.5742 27.7742 42.0655 26.7245 42.0655H25.7865C24.7592 42.0655 23.9775 41.5742 23.4415 40.5915L6.658 10.4415C6.76967 11.6475 6.8255 12.7195 6.8255 13.6575V49H1.1305V1.028H5.921C6.524 1.028 6.98183 1.095 7.2945 1.229C7.6295 1.34066 7.91983 1.631 8.1655 2.1L24.748 31.6805C25.3287 32.7748 25.8312 33.9362 26.2555 35.1645C26.9032 33.5565 27.4168 32.384 27.7965 31.647L44.044 2.1C44.2897 1.631 44.5688 1.34066 44.8815 1.229C45.2165 1.095 45.6855 1.028 46.2885 1.028H51.079V49Z" fill="#F6F5F1"/>
<path d="M62.5361 65.4897C59.4391 65.4897 56.5602 65.0754 53.8994 64.2466C50.846 66.7765 48.556 68.5322 47.0293 69.5137C44.194 71.2803 41.3042 72.1636 38.3599 72.1636C35.0011 72.1636 32.8311 71.193 31.8496 69.252C31.5661 68.6631 31.4243 68.0851 31.4243 67.5181C31.4243 66.951 31.5225 66.493 31.7188 66.144C31.915 65.7951 32.1549 65.5225 32.4385 65.3262C33.0273 64.9118 33.7144 64.7046 34.4995 64.7046C35.59 64.7046 36.1353 65.1953 36.1353 66.1768C36.1353 66.613 35.9608 66.9946 35.6118 67.3218C35.241 67.6271 34.7503 67.7798 34.1396 67.7798C33.5072 67.7798 33.0382 67.6707 32.7329 67.4526V67.6816C32.7329 70.0807 34.6958 71.2803 38.6216 71.2803C41.3478 71.2803 44.4339 70.0807 47.8799 67.6816L52.7544 63.854C49.6574 62.6981 47.182 61.0623 45.3281 58.9468C43.5397 56.9403 42.5801 54.7266 42.4492 52.3057C42.3184 49.9284 43.1035 47.9001 44.8047 46.2207C46.5931 44.4541 49.014 43.5708 52.0674 43.5708C56.3203 43.5708 59.8971 45.3919 62.7979 49.0342C63.6702 50.1465 64.4118 51.3351 65.0225 52.6001C72.0234 45.8826 76.6035 41.5643 78.7627 39.645L84.1279 34.9995C91.3688 29.0454 96.7013 26.0684 100.125 26.0684C100.518 26.0684 100.714 26.1338 100.714 26.2646C100.714 26.4173 100.529 26.5591 100.158 26.6899C99.8092 26.8208 99.4167 27.1043 98.9805 27.5405C98.5443 27.9767 97.9118 28.7074 97.083 29.7324L93.877 33.8218L71.729 63.2651C77.814 61.4549 82.5576 58.2161 85.96 53.5488C87.0505 52.0658 87.7811 50.8226 88.1519 49.8193C88.6535 48.4889 88.9588 47.8237 89.0679 47.8237C89.1333 47.8237 89.2314 47.9219 89.3623 48.1182C89.515 48.2926 89.5695 48.6852 89.5259 49.2959C89.5041 49.8848 89.3514 50.5936 89.0679 51.4224C88.7843 52.2293 88.4245 53.0036 87.9883 53.7451C87.2686 54.9883 86.0799 56.395 84.4224 57.9653C81.0854 61.215 76.5054 63.4396 70.6821 64.6392L65.0879 72.0327L62.9941 71.9019C62.2962 71.8582 61.7401 71.8364 61.3257 71.8364C60.9331 71.8364 60.5951 71.8582 60.3115 71.9019L59.3955 72.0327L64.2373 66.0459C64.3027 65.9368 64.3682 65.8387 64.4336 65.7515C64.499 65.6424 64.5535 65.5334 64.5972 65.4243C63.8993 65.4679 63.2122 65.4897 62.5361 65.4897ZM65.4805 53.6143C66.3747 55.9043 66.8218 57.8672 66.8218 59.5029C66.8218 61.1387 66.6909 62.4255 66.4292 63.3633L78.5664 48.6743C86.5706 39.3615 91.5324 33.6909 93.4517 31.6626C95.3709 29.6125 96.7886 28.1621 97.7046 27.3115L95.5127 28.2275C92.5684 29.5143 88.359 32.5241 82.8848 37.2568L76.0146 43.4727L65.4805 53.6143ZM53.5396 63.1997C57.7925 59.4048 61.3693 56.1006 64.27 53.2871C62.4598 49.165 59.7008 46.4606 55.9932 45.1738C54.75 44.7594 53.5286 44.5522 52.3291 44.5522C51.1514 44.5522 50.0936 44.7703 49.1558 45.2065C48.2397 45.6209 47.4328 46.1771 46.7349 46.875C45.23 48.3799 44.4775 50.1683 44.4775 52.2402C44.4775 55.8825 46.1787 58.8813 49.5811 61.2368C50.7152 62.022 52.0347 62.6763 53.5396 63.1997ZM54.6846 63.5596C57.0837 64.2357 59.7663 64.5737 62.7324 64.5737C63.4958 64.5737 64.2591 64.541 65.0225 64.4756C65.5241 63.1888 65.7749 61.9456 65.7749 60.7461C65.7749 58.5215 65.415 56.395 64.6953 54.3667C59.7881 58.9904 56.4512 62.0547 54.6846 63.5596Z" fill="#F6F5F1"/>
</svg>
